%TF.GenerationSoftware,KiCad,Pcbnew,5.1.7-a382d34a8~88~ubuntu16.04.1*%
%TF.CreationDate,2022-04-02T16:43:33-04:00*%
%TF.ProjectId,eInkBreakout,65496e6b-4272-4656-916b-6f75742e6b69,rev?*%
%TF.SameCoordinates,Original*%
%TF.FileFunction,Legend,Top*%
%TF.FilePolarity,Positive*%
%FSLAX46Y46*%
G04 Gerber Fmt 4.6, Leading zero omitted, Abs format (unit mm)*
G04 Created by KiCad (PCBNEW 5.1.7-a382d34a8~88~ubuntu16.04.1) date 2022-04-02 16:43:33*
%MOMM*%
%LPD*%
G01*
G04 APERTURE LIST*
%ADD10C,0.150000*%
%ADD11C,0.120000*%
G04 APERTURE END LIST*
D10*
X110048809Y-111095238D02*
X110086904Y-111171428D01*
X110086904Y-111323809D01*
X110048809Y-111400000D01*
X109972619Y-111438095D01*
X109667857Y-111438095D01*
X109591666Y-111400000D01*
X109553571Y-111323809D01*
X109553571Y-111171428D01*
X109591666Y-111095238D01*
X109667857Y-111057142D01*
X109744047Y-111057142D01*
X109820238Y-111438095D01*
X110086904Y-110714285D02*
X109286904Y-110714285D01*
X109553571Y-110333333D02*
X110086904Y-110333333D01*
X109629761Y-110333333D02*
X109591666Y-110295238D01*
X109553571Y-110219047D01*
X109553571Y-110104761D01*
X109591666Y-110028571D01*
X109667857Y-109990476D01*
X110086904Y-109990476D01*
X110086904Y-109609523D02*
X109286904Y-109609523D01*
X109782142Y-109533333D02*
X110086904Y-109304761D01*
X109553571Y-109304761D02*
X109858333Y-109609523D01*
X110048809Y-108390476D02*
X110086904Y-108276190D01*
X110086904Y-108085714D01*
X110048809Y-108009523D01*
X110010714Y-107971428D01*
X109934523Y-107933333D01*
X109858333Y-107933333D01*
X109782142Y-107971428D01*
X109744047Y-108009523D01*
X109705952Y-108085714D01*
X109667857Y-108238095D01*
X109629761Y-108314285D01*
X109591666Y-108352380D01*
X109515476Y-108390476D01*
X109439285Y-108390476D01*
X109363095Y-108352380D01*
X109325000Y-108314285D01*
X109286904Y-108238095D01*
X109286904Y-108047619D01*
X109325000Y-107933333D01*
X110010714Y-107133333D02*
X110048809Y-107171428D01*
X110086904Y-107285714D01*
X110086904Y-107361904D01*
X110048809Y-107476190D01*
X109972619Y-107552380D01*
X109896428Y-107590476D01*
X109744047Y-107628571D01*
X109629761Y-107628571D01*
X109477380Y-107590476D01*
X109401190Y-107552380D01*
X109325000Y-107476190D01*
X109286904Y-107361904D01*
X109286904Y-107285714D01*
X109325000Y-107171428D01*
X109363095Y-107133333D01*
X110086904Y-106790476D02*
X109286904Y-106790476D01*
X109286904Y-106600000D01*
X109325000Y-106485714D01*
X109401190Y-106409523D01*
X109477380Y-106371428D01*
X109629761Y-106333333D01*
X109744047Y-106333333D01*
X109896428Y-106371428D01*
X109972619Y-106409523D01*
X110048809Y-106485714D01*
X110086904Y-106600000D01*
X110086904Y-106790476D01*
X109286904Y-106066666D02*
X109286904Y-105533333D01*
X110086904Y-105876190D01*
X109363095Y-105266666D02*
X109325000Y-105228571D01*
X109286904Y-105152380D01*
X109286904Y-104961904D01*
X109325000Y-104885714D01*
X109363095Y-104847619D01*
X109439285Y-104809523D01*
X109515476Y-104809523D01*
X109629761Y-104847619D01*
X110086904Y-105304761D01*
X110086904Y-104809523D01*
X109363095Y-104504761D02*
X109325000Y-104466666D01*
X109286904Y-104390476D01*
X109286904Y-104200000D01*
X109325000Y-104123809D01*
X109363095Y-104085714D01*
X109439285Y-104047619D01*
X109515476Y-104047619D01*
X109629761Y-104085714D01*
X110086904Y-104542857D01*
X110086904Y-104047619D01*
X109286904Y-103552380D02*
X109286904Y-103476190D01*
X109325000Y-103400000D01*
X109363095Y-103361904D01*
X109439285Y-103323809D01*
X109591666Y-103285714D01*
X109782142Y-103285714D01*
X109934523Y-103323809D01*
X110010714Y-103361904D01*
X110048809Y-103400000D01*
X110086904Y-103476190D01*
X110086904Y-103552380D01*
X110048809Y-103628571D01*
X110010714Y-103666666D01*
X109934523Y-103704761D01*
X109782142Y-103742857D01*
X109591666Y-103742857D01*
X109439285Y-103704761D01*
X109363095Y-103666666D01*
X109325000Y-103628571D01*
X109286904Y-103552380D01*
X109286904Y-102790476D02*
X109286904Y-102714285D01*
X109325000Y-102638095D01*
X109363095Y-102600000D01*
X109439285Y-102561904D01*
X109591666Y-102523809D01*
X109782142Y-102523809D01*
X109934523Y-102561904D01*
X110010714Y-102600000D01*
X110048809Y-102638095D01*
X110086904Y-102714285D01*
X110086904Y-102790476D01*
X110048809Y-102866666D01*
X110010714Y-102904761D01*
X109934523Y-102942857D01*
X109782142Y-102980952D01*
X109591666Y-102980952D01*
X109439285Y-102942857D01*
X109363095Y-102904761D01*
X109325000Y-102866666D01*
X109286904Y-102790476D01*
X109363095Y-102219047D02*
X109325000Y-102180952D01*
X109286904Y-102104761D01*
X109286904Y-101914285D01*
X109325000Y-101838095D01*
X109363095Y-101800000D01*
X109439285Y-101761904D01*
X109515476Y-101761904D01*
X109629761Y-101800000D01*
X110086904Y-102257142D01*
X110086904Y-101761904D01*
X111436904Y-113685714D02*
X110636904Y-113685714D01*
X110636904Y-113495238D01*
X110675000Y-113380952D01*
X110751190Y-113304761D01*
X110827380Y-113266666D01*
X110979761Y-113228571D01*
X111094047Y-113228571D01*
X111246428Y-113266666D01*
X111322619Y-113304761D01*
X111398809Y-113380952D01*
X111436904Y-113495238D01*
X111436904Y-113685714D01*
X111436904Y-112885714D02*
X110903571Y-112885714D01*
X110636904Y-112885714D02*
X110675000Y-112923809D01*
X110713095Y-112885714D01*
X110675000Y-112847619D01*
X110636904Y-112885714D01*
X110713095Y-112885714D01*
X110903571Y-112161904D02*
X111551190Y-112161904D01*
X111627380Y-112200000D01*
X111665476Y-112238095D01*
X111703571Y-112314285D01*
X111703571Y-112428571D01*
X111665476Y-112504761D01*
X111398809Y-112161904D02*
X111436904Y-112238095D01*
X111436904Y-112390476D01*
X111398809Y-112466666D01*
X111360714Y-112504761D01*
X111284523Y-112542857D01*
X111055952Y-112542857D01*
X110979761Y-112504761D01*
X110941666Y-112466666D01*
X110903571Y-112390476D01*
X110903571Y-112238095D01*
X110941666Y-112161904D01*
X111436904Y-111780952D02*
X110903571Y-111780952D01*
X110636904Y-111780952D02*
X110675000Y-111819047D01*
X110713095Y-111780952D01*
X110675000Y-111742857D01*
X110636904Y-111780952D01*
X110713095Y-111780952D01*
X111436904Y-111400000D02*
X110636904Y-111400000D01*
X111132142Y-111323809D02*
X111436904Y-111095238D01*
X110903571Y-111095238D02*
X111208333Y-111400000D01*
X111398809Y-110447619D02*
X111436904Y-110523809D01*
X111436904Y-110676190D01*
X111398809Y-110752380D01*
X111322619Y-110790476D01*
X111017857Y-110790476D01*
X110941666Y-110752380D01*
X110903571Y-110676190D01*
X110903571Y-110523809D01*
X110941666Y-110447619D01*
X111017857Y-110409523D01*
X111094047Y-110409523D01*
X111170238Y-110790476D01*
X110903571Y-110142857D02*
X111436904Y-109952380D01*
X110903571Y-109761904D02*
X111436904Y-109952380D01*
X111627380Y-110028571D01*
X111665476Y-110066666D01*
X111703571Y-110142857D01*
X111436904Y-108428571D02*
X111436904Y-108885714D01*
X111436904Y-108657142D02*
X110636904Y-108657142D01*
X110751190Y-108733333D01*
X110827380Y-108809523D01*
X110865476Y-108885714D01*
X110713095Y-108123809D02*
X110675000Y-108085714D01*
X110636904Y-108009523D01*
X110636904Y-107819047D01*
X110675000Y-107742857D01*
X110713095Y-107704761D01*
X110789285Y-107666666D01*
X110865476Y-107666666D01*
X110979761Y-107704761D01*
X111436904Y-108161904D01*
X111436904Y-107666666D01*
X110636904Y-107400000D02*
X110636904Y-106866666D01*
X111436904Y-107209523D01*
X110713095Y-106600000D02*
X110675000Y-106561904D01*
X110636904Y-106485714D01*
X110636904Y-106295238D01*
X110675000Y-106219047D01*
X110713095Y-106180952D01*
X110789285Y-106142857D01*
X110865476Y-106142857D01*
X110979761Y-106180952D01*
X111436904Y-106638095D01*
X111436904Y-106142857D01*
X111132142Y-105800000D02*
X111132142Y-105190476D01*
X111436904Y-104390476D02*
X111436904Y-104847619D01*
X111436904Y-104619047D02*
X110636904Y-104619047D01*
X110751190Y-104695238D01*
X110827380Y-104771428D01*
X110865476Y-104847619D01*
X110636904Y-103895238D02*
X110636904Y-103819047D01*
X110675000Y-103742857D01*
X110713095Y-103704761D01*
X110789285Y-103666666D01*
X110941666Y-103628571D01*
X111132142Y-103628571D01*
X111284523Y-103666666D01*
X111360714Y-103704761D01*
X111398809Y-103742857D01*
X111436904Y-103819047D01*
X111436904Y-103895238D01*
X111398809Y-103971428D01*
X111360714Y-104009523D01*
X111284523Y-104047619D01*
X111132142Y-104085714D01*
X110941666Y-104085714D01*
X110789285Y-104047619D01*
X110713095Y-104009523D01*
X110675000Y-103971428D01*
X110636904Y-103895238D01*
X110636904Y-103133333D02*
X110636904Y-103057142D01*
X110675000Y-102980952D01*
X110713095Y-102942857D01*
X110789285Y-102904761D01*
X110941666Y-102866666D01*
X111132142Y-102866666D01*
X111284523Y-102904761D01*
X111360714Y-102942857D01*
X111398809Y-102980952D01*
X111436904Y-103057142D01*
X111436904Y-103133333D01*
X111398809Y-103209523D01*
X111360714Y-103247619D01*
X111284523Y-103285714D01*
X111132142Y-103323809D01*
X110941666Y-103323809D01*
X110789285Y-103285714D01*
X110713095Y-103247619D01*
X110675000Y-103209523D01*
X110636904Y-103133333D01*
X110636904Y-102180952D02*
X110636904Y-102333333D01*
X110675000Y-102409523D01*
X110713095Y-102447619D01*
X110827380Y-102523809D01*
X110979761Y-102561904D01*
X111284523Y-102561904D01*
X111360714Y-102523809D01*
X111398809Y-102485714D01*
X111436904Y-102409523D01*
X111436904Y-102257142D01*
X111398809Y-102180952D01*
X111360714Y-102142857D01*
X111284523Y-102104761D01*
X111094047Y-102104761D01*
X111017857Y-102142857D01*
X110979761Y-102180952D01*
X110941666Y-102257142D01*
X110941666Y-102409523D01*
X110979761Y-102485714D01*
X111017857Y-102523809D01*
X111094047Y-102561904D01*
X111132142Y-101761904D02*
X111132142Y-101152380D01*
X111436904Y-100771428D02*
X110636904Y-100771428D01*
X111436904Y-100314285D01*
X110636904Y-100314285D01*
X111436904Y-99933333D02*
X110636904Y-99933333D01*
X110636904Y-99742857D01*
X110675000Y-99628571D01*
X110751190Y-99552380D01*
X110827380Y-99514285D01*
X110979761Y-99476190D01*
X111094047Y-99476190D01*
X111246428Y-99514285D01*
X111322619Y-99552380D01*
X111398809Y-99628571D01*
X111436904Y-99742857D01*
X111436904Y-99933333D01*
X101638095Y-115452380D02*
X101066666Y-115452380D01*
X101352380Y-115452380D02*
X101352380Y-114452380D01*
X101257142Y-114595238D01*
X101161904Y-114690476D01*
X101066666Y-114738095D01*
X102066666Y-115071428D02*
X102828571Y-115071428D01*
X103828571Y-115452380D02*
X103257142Y-115452380D01*
X103542857Y-115452380D02*
X103542857Y-114452380D01*
X103447619Y-114595238D01*
X103352380Y-114690476D01*
X103257142Y-114738095D01*
X104161904Y-114452380D02*
X104828571Y-114452380D01*
X104400000Y-115452380D01*
X105114285Y-114452380D02*
X105733333Y-114452380D01*
X105400000Y-114833333D01*
X105542857Y-114833333D01*
X105638095Y-114880952D01*
X105685714Y-114928571D01*
X105733333Y-115023809D01*
X105733333Y-115261904D01*
X105685714Y-115357142D01*
X105638095Y-115404761D01*
X105542857Y-115452380D01*
X105257142Y-115452380D01*
X105161904Y-115404761D01*
X105114285Y-115357142D01*
X106590476Y-114785714D02*
X106590476Y-115452380D01*
X106352380Y-114404761D02*
X106114285Y-115119047D01*
X106733333Y-115119047D01*
X107590476Y-114452380D02*
X107114285Y-114452380D01*
X107066666Y-114928571D01*
X107114285Y-114880952D01*
X107209523Y-114833333D01*
X107447619Y-114833333D01*
X107542857Y-114880952D01*
X107590476Y-114928571D01*
X107638095Y-115023809D01*
X107638095Y-115261904D01*
X107590476Y-115357142D01*
X107542857Y-115404761D01*
X107447619Y-115452380D01*
X107209523Y-115452380D01*
X107114285Y-115404761D01*
X107066666Y-115357142D01*
X108114285Y-115452380D02*
X108304761Y-115452380D01*
X108400000Y-115404761D01*
X108447619Y-115357142D01*
X108542857Y-115214285D01*
X108590476Y-115023809D01*
X108590476Y-114642857D01*
X108542857Y-114547619D01*
X108495238Y-114500000D01*
X108400000Y-114452380D01*
X108209523Y-114452380D01*
X108114285Y-114500000D01*
X108066666Y-114547619D01*
X108019047Y-114642857D01*
X108019047Y-114880952D01*
X108066666Y-114976190D01*
X108114285Y-115023809D01*
X108209523Y-115071428D01*
X108400000Y-115071428D01*
X108495238Y-115023809D01*
X108542857Y-114976190D01*
X108590476Y-114880952D01*
X108971428Y-114547619D02*
X109019047Y-114500000D01*
X109114285Y-114452380D01*
X109352380Y-114452380D01*
X109447619Y-114500000D01*
X109495238Y-114547619D01*
X109542857Y-114642857D01*
X109542857Y-114738095D01*
X109495238Y-114880952D01*
X108923809Y-115452380D01*
X109542857Y-115452380D01*
X109971428Y-115071428D02*
X110733333Y-115071428D01*
X111638095Y-114452380D02*
X111447619Y-114452380D01*
X111352380Y-114500000D01*
X111304761Y-114547619D01*
X111209523Y-114690476D01*
X111161904Y-114880952D01*
X111161904Y-115261904D01*
X111209523Y-115357142D01*
X111257142Y-115404761D01*
X111352380Y-115452380D01*
X111542857Y-115452380D01*
X111638095Y-115404761D01*
X111685714Y-115357142D01*
X111733333Y-115261904D01*
X111733333Y-115023809D01*
X111685714Y-114928571D01*
X111638095Y-114880952D01*
X111542857Y-114833333D01*
X111352380Y-114833333D01*
X111257142Y-114880952D01*
X111209523Y-114928571D01*
X111161904Y-115023809D01*
X97200000Y-99852380D02*
X97200000Y-98852380D01*
X97438095Y-98852380D01*
X97580952Y-98900000D01*
X97676190Y-98995238D01*
X97723809Y-99090476D01*
X97771428Y-99280952D01*
X97771428Y-99423809D01*
X97723809Y-99614285D01*
X97676190Y-99709523D01*
X97580952Y-99804761D01*
X97438095Y-99852380D01*
X97200000Y-99852380D01*
X98342857Y-99852380D02*
X98247619Y-99804761D01*
X98200000Y-99757142D01*
X98152380Y-99661904D01*
X98152380Y-99376190D01*
X98200000Y-99280952D01*
X98247619Y-99233333D01*
X98342857Y-99185714D01*
X98485714Y-99185714D01*
X98580952Y-99233333D01*
X98628571Y-99280952D01*
X98676190Y-99376190D01*
X98676190Y-99661904D01*
X98628571Y-99757142D01*
X98580952Y-99804761D01*
X98485714Y-99852380D01*
X98342857Y-99852380D01*
X98961904Y-99185714D02*
X99342857Y-99185714D01*
X99104761Y-98852380D02*
X99104761Y-99709523D01*
X99152380Y-99804761D01*
X99247619Y-99852380D01*
X99342857Y-99852380D01*
X100152380Y-98852380D02*
X99676190Y-98852380D01*
X99628571Y-99328571D01*
X99676190Y-99280952D01*
X99771428Y-99233333D01*
X100009523Y-99233333D01*
X100104761Y-99280952D01*
X100152380Y-99328571D01*
X100200000Y-99423809D01*
X100200000Y-99661904D01*
X100152380Y-99757142D01*
X100104761Y-99804761D01*
X100009523Y-99852380D01*
X99771428Y-99852380D01*
X99676190Y-99804761D01*
X99628571Y-99757142D01*
X101390476Y-99852380D02*
X101390476Y-98852380D01*
X101628571Y-98852380D01*
X101771428Y-98900000D01*
X101866666Y-98995238D01*
X101914285Y-99090476D01*
X101961904Y-99280952D01*
X101961904Y-99423809D01*
X101914285Y-99614285D01*
X101866666Y-99709523D01*
X101771428Y-99804761D01*
X101628571Y-99852380D01*
X101390476Y-99852380D01*
X102390476Y-99852380D02*
X102390476Y-99185714D01*
X102390476Y-98852380D02*
X102342857Y-98900000D01*
X102390476Y-98947619D01*
X102438095Y-98900000D01*
X102390476Y-98852380D01*
X102390476Y-98947619D01*
X102819047Y-99804761D02*
X102914285Y-99852380D01*
X103104761Y-99852380D01*
X103200000Y-99804761D01*
X103247619Y-99709523D01*
X103247619Y-99661904D01*
X103200000Y-99566666D01*
X103104761Y-99519047D01*
X102961904Y-99519047D01*
X102866666Y-99471428D01*
X102819047Y-99376190D01*
X102819047Y-99328571D01*
X102866666Y-99233333D01*
X102961904Y-99185714D01*
X103104761Y-99185714D01*
X103200000Y-99233333D01*
X103533333Y-99185714D02*
X103914285Y-99185714D01*
X103676190Y-98852380D02*
X103676190Y-99709523D01*
X103723809Y-99804761D01*
X103819047Y-99852380D01*
X103914285Y-99852380D01*
X104676190Y-99852380D02*
X104676190Y-99328571D01*
X104628571Y-99233333D01*
X104533333Y-99185714D01*
X104342857Y-99185714D01*
X104247619Y-99233333D01*
X104676190Y-99804761D02*
X104580952Y-99852380D01*
X104342857Y-99852380D01*
X104247619Y-99804761D01*
X104200000Y-99709523D01*
X104200000Y-99614285D01*
X104247619Y-99519047D01*
X104342857Y-99471428D01*
X104580952Y-99471428D01*
X104676190Y-99423809D01*
X105295238Y-99852380D02*
X105200000Y-99804761D01*
X105152380Y-99709523D01*
X105152380Y-98852380D01*
X97123809Y-102452380D02*
X97123809Y-101452380D01*
X97361904Y-101452380D01*
X97504761Y-101500000D01*
X97600000Y-101595238D01*
X97647619Y-101690476D01*
X97695238Y-101880952D01*
X97695238Y-102023809D01*
X97647619Y-102214285D01*
X97600000Y-102309523D01*
X97504761Y-102404761D01*
X97361904Y-102452380D01*
X97123809Y-102452380D01*
X98266666Y-102452380D02*
X98171428Y-102404761D01*
X98123809Y-102357142D01*
X98076190Y-102261904D01*
X98076190Y-101976190D01*
X98123809Y-101880952D01*
X98171428Y-101833333D01*
X98266666Y-101785714D01*
X98409523Y-101785714D01*
X98504761Y-101833333D01*
X98552380Y-101880952D01*
X98600000Y-101976190D01*
X98600000Y-102261904D01*
X98552380Y-102357142D01*
X98504761Y-102404761D01*
X98409523Y-102452380D01*
X98266666Y-102452380D01*
X98885714Y-101785714D02*
X99266666Y-101785714D01*
X99028571Y-101452380D02*
X99028571Y-102309523D01*
X99076190Y-102404761D01*
X99171428Y-102452380D01*
X99266666Y-102452380D01*
X100028571Y-101785714D02*
X100028571Y-102452380D01*
X99790476Y-101404761D02*
X99552380Y-102119047D01*
X100171428Y-102119047D01*
X97123809Y-105052380D02*
X97123809Y-104052380D01*
X97361904Y-104052380D01*
X97504761Y-104100000D01*
X97600000Y-104195238D01*
X97647619Y-104290476D01*
X97695238Y-104480952D01*
X97695238Y-104623809D01*
X97647619Y-104814285D01*
X97600000Y-104909523D01*
X97504761Y-105004761D01*
X97361904Y-105052380D01*
X97123809Y-105052380D01*
X98266666Y-105052380D02*
X98171428Y-105004761D01*
X98123809Y-104957142D01*
X98076190Y-104861904D01*
X98076190Y-104576190D01*
X98123809Y-104480952D01*
X98171428Y-104433333D01*
X98266666Y-104385714D01*
X98409523Y-104385714D01*
X98504761Y-104433333D01*
X98552380Y-104480952D01*
X98600000Y-104576190D01*
X98600000Y-104861904D01*
X98552380Y-104957142D01*
X98504761Y-105004761D01*
X98409523Y-105052380D01*
X98266666Y-105052380D01*
X98885714Y-104385714D02*
X99266666Y-104385714D01*
X99028571Y-104052380D02*
X99028571Y-104909523D01*
X99076190Y-105004761D01*
X99171428Y-105052380D01*
X99266666Y-105052380D01*
X99504761Y-104052380D02*
X100123809Y-104052380D01*
X99790476Y-104433333D01*
X99933333Y-104433333D01*
X100028571Y-104480952D01*
X100076190Y-104528571D01*
X100123809Y-104623809D01*
X100123809Y-104861904D01*
X100076190Y-104957142D01*
X100028571Y-105004761D01*
X99933333Y-105052380D01*
X99647619Y-105052380D01*
X99552380Y-105004761D01*
X99504761Y-104957142D01*
X97123809Y-107652380D02*
X97123809Y-106652380D01*
X97361904Y-106652380D01*
X97504761Y-106700000D01*
X97600000Y-106795238D01*
X97647619Y-106890476D01*
X97695238Y-107080952D01*
X97695238Y-107223809D01*
X97647619Y-107414285D01*
X97600000Y-107509523D01*
X97504761Y-107604761D01*
X97361904Y-107652380D01*
X97123809Y-107652380D01*
X98266666Y-107652380D02*
X98171428Y-107604761D01*
X98123809Y-107557142D01*
X98076190Y-107461904D01*
X98076190Y-107176190D01*
X98123809Y-107080952D01*
X98171428Y-107033333D01*
X98266666Y-106985714D01*
X98409523Y-106985714D01*
X98504761Y-107033333D01*
X98552380Y-107080952D01*
X98600000Y-107176190D01*
X98600000Y-107461904D01*
X98552380Y-107557142D01*
X98504761Y-107604761D01*
X98409523Y-107652380D01*
X98266666Y-107652380D01*
X98885714Y-106985714D02*
X99266666Y-106985714D01*
X99028571Y-106652380D02*
X99028571Y-107509523D01*
X99076190Y-107604761D01*
X99171428Y-107652380D01*
X99266666Y-107652380D01*
X99552380Y-106747619D02*
X99600000Y-106700000D01*
X99695238Y-106652380D01*
X99933333Y-106652380D01*
X100028571Y-106700000D01*
X100076190Y-106747619D01*
X100123809Y-106842857D01*
X100123809Y-106938095D01*
X100076190Y-107080952D01*
X99504761Y-107652380D01*
X100123809Y-107652380D01*
X97123809Y-110052380D02*
X97123809Y-109052380D01*
X97361904Y-109052380D01*
X97504761Y-109100000D01*
X97600000Y-109195238D01*
X97647619Y-109290476D01*
X97695238Y-109480952D01*
X97695238Y-109623809D01*
X97647619Y-109814285D01*
X97600000Y-109909523D01*
X97504761Y-110004761D01*
X97361904Y-110052380D01*
X97123809Y-110052380D01*
X98266666Y-110052380D02*
X98171428Y-110004761D01*
X98123809Y-109957142D01*
X98076190Y-109861904D01*
X98076190Y-109576190D01*
X98123809Y-109480952D01*
X98171428Y-109433333D01*
X98266666Y-109385714D01*
X98409523Y-109385714D01*
X98504761Y-109433333D01*
X98552380Y-109480952D01*
X98600000Y-109576190D01*
X98600000Y-109861904D01*
X98552380Y-109957142D01*
X98504761Y-110004761D01*
X98409523Y-110052380D01*
X98266666Y-110052380D01*
X98885714Y-109385714D02*
X99266666Y-109385714D01*
X99028571Y-109052380D02*
X99028571Y-109909523D01*
X99076190Y-110004761D01*
X99171428Y-110052380D01*
X99266666Y-110052380D01*
X100123809Y-110052380D02*
X99552380Y-110052380D01*
X99838095Y-110052380D02*
X99838095Y-109052380D01*
X99742857Y-109195238D01*
X99647619Y-109290476D01*
X99552380Y-109338095D01*
X97561904Y-112328571D02*
X97704761Y-112376190D01*
X97752380Y-112423809D01*
X97800000Y-112519047D01*
X97800000Y-112661904D01*
X97752380Y-112757142D01*
X97704761Y-112804761D01*
X97609523Y-112852380D01*
X97228571Y-112852380D01*
X97228571Y-111852380D01*
X97561904Y-111852380D01*
X97657142Y-111900000D01*
X97704761Y-111947619D01*
X97752380Y-112042857D01*
X97752380Y-112138095D01*
X97704761Y-112233333D01*
X97657142Y-112280952D01*
X97561904Y-112328571D01*
X97228571Y-112328571D01*
X98228571Y-112852380D02*
X98228571Y-111852380D01*
X98323809Y-112471428D02*
X98609523Y-112852380D01*
X98609523Y-112185714D02*
X98228571Y-112566666D01*
X99466666Y-112185714D02*
X99466666Y-112995238D01*
X99419047Y-113090476D01*
X99371428Y-113138095D01*
X99276190Y-113185714D01*
X99133333Y-113185714D01*
X99038095Y-113138095D01*
X99466666Y-112804761D02*
X99371428Y-112852380D01*
X99180952Y-112852380D01*
X99085714Y-112804761D01*
X99038095Y-112757142D01*
X98990476Y-112661904D01*
X98990476Y-112376190D01*
X99038095Y-112280952D01*
X99085714Y-112233333D01*
X99180952Y-112185714D01*
X99371428Y-112185714D01*
X99466666Y-112233333D01*
X100371428Y-112852380D02*
X100371428Y-111852380D01*
X100371428Y-112804761D02*
X100276190Y-112852380D01*
X100085714Y-112852380D01*
X99990476Y-112804761D01*
X99942857Y-112757142D01*
X99895238Y-112661904D01*
X99895238Y-112376190D01*
X99942857Y-112280952D01*
X99990476Y-112233333D01*
X100085714Y-112185714D01*
X100276190Y-112185714D01*
X100371428Y-112233333D01*
X97209523Y-114052380D02*
X97780952Y-114052380D01*
X97495238Y-115052380D02*
X97495238Y-114052380D01*
X98257142Y-115052380D02*
X98161904Y-115004761D01*
X98114285Y-114957142D01*
X98066666Y-114861904D01*
X98066666Y-114576190D01*
X98114285Y-114480952D01*
X98161904Y-114433333D01*
X98257142Y-114385714D01*
X98400000Y-114385714D01*
X98495238Y-114433333D01*
X98542857Y-114480952D01*
X98590476Y-114576190D01*
X98590476Y-114861904D01*
X98542857Y-114957142D01*
X98495238Y-115004761D01*
X98400000Y-115052380D01*
X98257142Y-115052380D01*
X99019047Y-114385714D02*
X99019047Y-115385714D01*
X99019047Y-114433333D02*
X99114285Y-114385714D01*
X99304761Y-114385714D01*
X99400000Y-114433333D01*
X99447619Y-114480952D01*
X99495238Y-114576190D01*
X99495238Y-114861904D01*
X99447619Y-114957142D01*
X99400000Y-115004761D01*
X99304761Y-115052380D01*
X99114285Y-115052380D01*
X99019047Y-115004761D01*
D11*
%TO.C,J2*%
X103250000Y-110350000D02*
X103250000Y-110750000D01*
X103650000Y-110550000D02*
X103250000Y-110350000D01*
X103250000Y-110750000D02*
X103650000Y-110550000D01*
X105840000Y-99975000D02*
X106440000Y-99975000D01*
X105840000Y-100085000D02*
X105840000Y-99975000D01*
X105840000Y-113625000D02*
X106440000Y-113625000D01*
X105840000Y-113515000D02*
X105840000Y-113625000D01*
%TO.C,J1*%
X96930000Y-115930000D02*
X95600000Y-115930000D01*
X96930000Y-114600000D02*
X96930000Y-115930000D01*
X96930000Y-113330000D02*
X94270000Y-113330000D01*
X94270000Y-113330000D02*
X94270000Y-98030000D01*
X96930000Y-113330000D02*
X96930000Y-98030000D01*
X96930000Y-98030000D02*
X94270000Y-98030000D01*
%TD*%
M02*
