%TF.GenerationSoftware,KiCad,Pcbnew,5.1.7-a382d34a8~88~ubuntu16.04.1*%
%TF.CreationDate,2022-04-02T16:43:32-04:00*%
%TF.ProjectId,eInkBreakout,65496e6b-4272-4656-916b-6f75742e6b69,rev?*%
%TF.SameCoordinates,Original*%
%TF.FileFunction,Copper,L2,Bot*%
%TF.FilePolarity,Positive*%
%FSLAX46Y46*%
G04 Gerber Fmt 4.6, Leading zero omitted, Abs format (unit mm)*
G04 Created by KiCad (PCBNEW 5.1.7-a382d34a8~88~ubuntu16.04.1) date 2022-04-02 16:43:32*
%MOMM*%
%LPD*%
G01*
G04 APERTURE LIST*
%TA.AperFunction,ComponentPad*%
%ADD10R,1.700000X1.700000*%
%TD*%
%TA.AperFunction,ComponentPad*%
%ADD11O,1.700000X1.700000*%
%TD*%
%TA.AperFunction,NonConductor*%
%ADD12C,0.254000*%
%TD*%
%TA.AperFunction,NonConductor*%
%ADD13C,0.100000*%
%TD*%
G04 APERTURE END LIST*
D10*
%TO.P,J1,1*%
%TO.N,Top*%
X95600000Y-114600000D03*
D11*
%TO.P,J1,2*%
%TO.N,Bkgd*%
X95600000Y-112060000D03*
%TO.P,J1,3*%
%TO.N,Dot1*%
X95600000Y-109520000D03*
%TO.P,J1,4*%
%TO.N,Dot2*%
X95600000Y-106980000D03*
%TO.P,J1,5*%
%TO.N,Dot3*%
X95600000Y-104440000D03*
%TO.P,J1,6*%
%TO.N,Dot4*%
X95600000Y-101900000D03*
%TO.P,J1,7*%
%TO.N,Dot5Distal*%
X95600000Y-99360000D03*
%TD*%
D12*
X112340001Y-116340000D02*
X93660000Y-116340000D01*
X93660000Y-113750000D01*
X94111928Y-113750000D01*
X94111928Y-115450000D01*
X94124188Y-115574482D01*
X94160498Y-115694180D01*
X94219463Y-115804494D01*
X94298815Y-115901185D01*
X94395506Y-115980537D01*
X94505820Y-116039502D01*
X94625518Y-116075812D01*
X94750000Y-116088072D01*
X96450000Y-116088072D01*
X96574482Y-116075812D01*
X96694180Y-116039502D01*
X96804494Y-115980537D01*
X96901185Y-115901185D01*
X96980537Y-115804494D01*
X97039502Y-115694180D01*
X97075812Y-115574482D01*
X97088072Y-115450000D01*
X97088072Y-113750000D01*
X97075812Y-113625518D01*
X97039502Y-113505820D01*
X96980537Y-113395506D01*
X96901185Y-113298815D01*
X96804494Y-113219463D01*
X96694180Y-113160498D01*
X96621620Y-113138487D01*
X96753475Y-113006632D01*
X96915990Y-112763411D01*
X97027932Y-112493158D01*
X97085000Y-112206260D01*
X97085000Y-111913740D01*
X97027932Y-111626842D01*
X96915990Y-111356589D01*
X96753475Y-111113368D01*
X96546632Y-110906525D01*
X96372240Y-110790000D01*
X96546632Y-110673475D01*
X96753475Y-110466632D01*
X96915990Y-110223411D01*
X97027932Y-109953158D01*
X97085000Y-109666260D01*
X97085000Y-109373740D01*
X97027932Y-109086842D01*
X96915990Y-108816589D01*
X96753475Y-108573368D01*
X96546632Y-108366525D01*
X96372240Y-108250000D01*
X96546632Y-108133475D01*
X96753475Y-107926632D01*
X96915990Y-107683411D01*
X97027932Y-107413158D01*
X97085000Y-107126260D01*
X97085000Y-106833740D01*
X97027932Y-106546842D01*
X96915990Y-106276589D01*
X96753475Y-106033368D01*
X96546632Y-105826525D01*
X96372240Y-105710000D01*
X96546632Y-105593475D01*
X96753475Y-105386632D01*
X96915990Y-105143411D01*
X97027932Y-104873158D01*
X97085000Y-104586260D01*
X97085000Y-104293740D01*
X97027932Y-104006842D01*
X96915990Y-103736589D01*
X96753475Y-103493368D01*
X96546632Y-103286525D01*
X96372240Y-103170000D01*
X96546632Y-103053475D01*
X96753475Y-102846632D01*
X96915990Y-102603411D01*
X97027932Y-102333158D01*
X97085000Y-102046260D01*
X97085000Y-101753740D01*
X97027932Y-101466842D01*
X96915990Y-101196589D01*
X96753475Y-100953368D01*
X96546632Y-100746525D01*
X96372240Y-100630000D01*
X96546632Y-100513475D01*
X96753475Y-100306632D01*
X96915990Y-100063411D01*
X97027932Y-99793158D01*
X97085000Y-99506260D01*
X97085000Y-99213740D01*
X97027932Y-98926842D01*
X96915990Y-98656589D01*
X96753475Y-98413368D01*
X96546632Y-98206525D01*
X96303411Y-98044010D01*
X96033158Y-97932068D01*
X95746260Y-97875000D01*
X95453740Y-97875000D01*
X95166842Y-97932068D01*
X94896589Y-98044010D01*
X94653368Y-98206525D01*
X94446525Y-98413368D01*
X94284010Y-98656589D01*
X94172068Y-98926842D01*
X94115000Y-99213740D01*
X94115000Y-99506260D01*
X94172068Y-99793158D01*
X94284010Y-100063411D01*
X94446525Y-100306632D01*
X94653368Y-100513475D01*
X94827760Y-100630000D01*
X94653368Y-100746525D01*
X94446525Y-100953368D01*
X94284010Y-101196589D01*
X94172068Y-101466842D01*
X94115000Y-101753740D01*
X94115000Y-102046260D01*
X94172068Y-102333158D01*
X94284010Y-102603411D01*
X94446525Y-102846632D01*
X94653368Y-103053475D01*
X94827760Y-103170000D01*
X94653368Y-103286525D01*
X94446525Y-103493368D01*
X94284010Y-103736589D01*
X94172068Y-104006842D01*
X94115000Y-104293740D01*
X94115000Y-104586260D01*
X94172068Y-104873158D01*
X94284010Y-105143411D01*
X94446525Y-105386632D01*
X94653368Y-105593475D01*
X94827760Y-105710000D01*
X94653368Y-105826525D01*
X94446525Y-106033368D01*
X94284010Y-106276589D01*
X94172068Y-106546842D01*
X94115000Y-106833740D01*
X94115000Y-107126260D01*
X94172068Y-107413158D01*
X94284010Y-107683411D01*
X94446525Y-107926632D01*
X94653368Y-108133475D01*
X94827760Y-108250000D01*
X94653368Y-108366525D01*
X94446525Y-108573368D01*
X94284010Y-108816589D01*
X94172068Y-109086842D01*
X94115000Y-109373740D01*
X94115000Y-109666260D01*
X94172068Y-109953158D01*
X94284010Y-110223411D01*
X94446525Y-110466632D01*
X94653368Y-110673475D01*
X94827760Y-110790000D01*
X94653368Y-110906525D01*
X94446525Y-111113368D01*
X94284010Y-111356589D01*
X94172068Y-111626842D01*
X94115000Y-111913740D01*
X94115000Y-112206260D01*
X94172068Y-112493158D01*
X94284010Y-112763411D01*
X94446525Y-113006632D01*
X94578380Y-113138487D01*
X94505820Y-113160498D01*
X94395506Y-113219463D01*
X94298815Y-113298815D01*
X94219463Y-113395506D01*
X94160498Y-113505820D01*
X94124188Y-113625518D01*
X94111928Y-113750000D01*
X93660000Y-113750000D01*
X93660000Y-97660000D01*
X112340000Y-97660000D01*
X112340001Y-116340000D01*
%TA.AperFunction,NonConductor*%
D13*
G36*
X112340001Y-116340000D02*
G01*
X93660000Y-116340000D01*
X93660000Y-113750000D01*
X94111928Y-113750000D01*
X94111928Y-115450000D01*
X94124188Y-115574482D01*
X94160498Y-115694180D01*
X94219463Y-115804494D01*
X94298815Y-115901185D01*
X94395506Y-115980537D01*
X94505820Y-116039502D01*
X94625518Y-116075812D01*
X94750000Y-116088072D01*
X96450000Y-116088072D01*
X96574482Y-116075812D01*
X96694180Y-116039502D01*
X96804494Y-115980537D01*
X96901185Y-115901185D01*
X96980537Y-115804494D01*
X97039502Y-115694180D01*
X97075812Y-115574482D01*
X97088072Y-115450000D01*
X97088072Y-113750000D01*
X97075812Y-113625518D01*
X97039502Y-113505820D01*
X96980537Y-113395506D01*
X96901185Y-113298815D01*
X96804494Y-113219463D01*
X96694180Y-113160498D01*
X96621620Y-113138487D01*
X96753475Y-113006632D01*
X96915990Y-112763411D01*
X97027932Y-112493158D01*
X97085000Y-112206260D01*
X97085000Y-111913740D01*
X97027932Y-111626842D01*
X96915990Y-111356589D01*
X96753475Y-111113368D01*
X96546632Y-110906525D01*
X96372240Y-110790000D01*
X96546632Y-110673475D01*
X96753475Y-110466632D01*
X96915990Y-110223411D01*
X97027932Y-109953158D01*
X97085000Y-109666260D01*
X97085000Y-109373740D01*
X97027932Y-109086842D01*
X96915990Y-108816589D01*
X96753475Y-108573368D01*
X96546632Y-108366525D01*
X96372240Y-108250000D01*
X96546632Y-108133475D01*
X96753475Y-107926632D01*
X96915990Y-107683411D01*
X97027932Y-107413158D01*
X97085000Y-107126260D01*
X97085000Y-106833740D01*
X97027932Y-106546842D01*
X96915990Y-106276589D01*
X96753475Y-106033368D01*
X96546632Y-105826525D01*
X96372240Y-105710000D01*
X96546632Y-105593475D01*
X96753475Y-105386632D01*
X96915990Y-105143411D01*
X97027932Y-104873158D01*
X97085000Y-104586260D01*
X97085000Y-104293740D01*
X97027932Y-104006842D01*
X96915990Y-103736589D01*
X96753475Y-103493368D01*
X96546632Y-103286525D01*
X96372240Y-103170000D01*
X96546632Y-103053475D01*
X96753475Y-102846632D01*
X96915990Y-102603411D01*
X97027932Y-102333158D01*
X97085000Y-102046260D01*
X97085000Y-101753740D01*
X97027932Y-101466842D01*
X96915990Y-101196589D01*
X96753475Y-100953368D01*
X96546632Y-100746525D01*
X96372240Y-100630000D01*
X96546632Y-100513475D01*
X96753475Y-100306632D01*
X96915990Y-100063411D01*
X97027932Y-99793158D01*
X97085000Y-99506260D01*
X97085000Y-99213740D01*
X97027932Y-98926842D01*
X96915990Y-98656589D01*
X96753475Y-98413368D01*
X96546632Y-98206525D01*
X96303411Y-98044010D01*
X96033158Y-97932068D01*
X95746260Y-97875000D01*
X95453740Y-97875000D01*
X95166842Y-97932068D01*
X94896589Y-98044010D01*
X94653368Y-98206525D01*
X94446525Y-98413368D01*
X94284010Y-98656589D01*
X94172068Y-98926842D01*
X94115000Y-99213740D01*
X94115000Y-99506260D01*
X94172068Y-99793158D01*
X94284010Y-100063411D01*
X94446525Y-100306632D01*
X94653368Y-100513475D01*
X94827760Y-100630000D01*
X94653368Y-100746525D01*
X94446525Y-100953368D01*
X94284010Y-101196589D01*
X94172068Y-101466842D01*
X94115000Y-101753740D01*
X94115000Y-102046260D01*
X94172068Y-102333158D01*
X94284010Y-102603411D01*
X94446525Y-102846632D01*
X94653368Y-103053475D01*
X94827760Y-103170000D01*
X94653368Y-103286525D01*
X94446525Y-103493368D01*
X94284010Y-103736589D01*
X94172068Y-104006842D01*
X94115000Y-104293740D01*
X94115000Y-104586260D01*
X94172068Y-104873158D01*
X94284010Y-105143411D01*
X94446525Y-105386632D01*
X94653368Y-105593475D01*
X94827760Y-105710000D01*
X94653368Y-105826525D01*
X94446525Y-106033368D01*
X94284010Y-106276589D01*
X94172068Y-106546842D01*
X94115000Y-106833740D01*
X94115000Y-107126260D01*
X94172068Y-107413158D01*
X94284010Y-107683411D01*
X94446525Y-107926632D01*
X94653368Y-108133475D01*
X94827760Y-108250000D01*
X94653368Y-108366525D01*
X94446525Y-108573368D01*
X94284010Y-108816589D01*
X94172068Y-109086842D01*
X94115000Y-109373740D01*
X94115000Y-109666260D01*
X94172068Y-109953158D01*
X94284010Y-110223411D01*
X94446525Y-110466632D01*
X94653368Y-110673475D01*
X94827760Y-110790000D01*
X94653368Y-110906525D01*
X94446525Y-111113368D01*
X94284010Y-111356589D01*
X94172068Y-111626842D01*
X94115000Y-111913740D01*
X94115000Y-112206260D01*
X94172068Y-112493158D01*
X94284010Y-112763411D01*
X94446525Y-113006632D01*
X94578380Y-113138487D01*
X94505820Y-113160498D01*
X94395506Y-113219463D01*
X94298815Y-113298815D01*
X94219463Y-113395506D01*
X94160498Y-113505820D01*
X94124188Y-113625518D01*
X94111928Y-113750000D01*
X93660000Y-113750000D01*
X93660000Y-97660000D01*
X112340000Y-97660000D01*
X112340001Y-116340000D01*
G37*
%TD.AperFunction*%
M02*
