%TF.GenerationSoftware,KiCad,Pcbnew,5.1.7-a382d34a8~88~ubuntu16.04.1*%
%TF.CreationDate,2022-04-02T16:43:33-04:00*%
%TF.ProjectId,eInkBreakout,65496e6b-4272-4656-916b-6f75742e6b69,rev?*%
%TF.SameCoordinates,Original*%
%TF.FileFunction,Legend,Bot*%
%TF.FilePolarity,Positive*%
%FSLAX46Y46*%
G04 Gerber Fmt 4.6, Leading zero omitted, Abs format (unit mm)*
G04 Created by KiCad (PCBNEW 5.1.7-a382d34a8~88~ubuntu16.04.1) date 2022-04-02 16:43:33*
%MOMM*%
%LPD*%
G01*
G04 APERTURE LIST*
%ADD10C,0.150000*%
G04 APERTURE END LIST*
D10*
X107390476Y-98554761D02*
X107485714Y-98602380D01*
X107676190Y-98602380D01*
X107771428Y-98554761D01*
X107819047Y-98459523D01*
X107819047Y-98078571D01*
X107771428Y-97983333D01*
X107676190Y-97935714D01*
X107485714Y-97935714D01*
X107390476Y-97983333D01*
X107342857Y-98078571D01*
X107342857Y-98173809D01*
X107819047Y-98269047D01*
X106914285Y-98602380D02*
X106914285Y-97602380D01*
X106438095Y-97935714D02*
X106438095Y-98602380D01*
X106438095Y-98030952D02*
X106390476Y-97983333D01*
X106295238Y-97935714D01*
X106152380Y-97935714D01*
X106057142Y-97983333D01*
X106009523Y-98078571D01*
X106009523Y-98602380D01*
X105533333Y-98602380D02*
X105533333Y-97602380D01*
X105438095Y-98221428D02*
X105152380Y-98602380D01*
X105152380Y-97935714D02*
X105533333Y-98316666D01*
X104390476Y-98078571D02*
X104247619Y-98126190D01*
X104200000Y-98173809D01*
X104152380Y-98269047D01*
X104152380Y-98411904D01*
X104200000Y-98507142D01*
X104247619Y-98554761D01*
X104342857Y-98602380D01*
X104723809Y-98602380D01*
X104723809Y-97602380D01*
X104390476Y-97602380D01*
X104295238Y-97650000D01*
X104247619Y-97697619D01*
X104200000Y-97792857D01*
X104200000Y-97888095D01*
X104247619Y-97983333D01*
X104295238Y-98030952D01*
X104390476Y-98078571D01*
X104723809Y-98078571D01*
X103723809Y-98602380D02*
X103723809Y-97935714D01*
X103723809Y-98126190D02*
X103676190Y-98030952D01*
X103628571Y-97983333D01*
X103533333Y-97935714D01*
X103438095Y-97935714D01*
X102723809Y-98554761D02*
X102819047Y-98602380D01*
X103009523Y-98602380D01*
X103104761Y-98554761D01*
X103152380Y-98459523D01*
X103152380Y-98078571D01*
X103104761Y-97983333D01*
X103009523Y-97935714D01*
X102819047Y-97935714D01*
X102723809Y-97983333D01*
X102676190Y-98078571D01*
X102676190Y-98173809D01*
X103152380Y-98269047D01*
X101819047Y-98602380D02*
X101819047Y-98078571D01*
X101866666Y-97983333D01*
X101961904Y-97935714D01*
X102152380Y-97935714D01*
X102247619Y-97983333D01*
X101819047Y-98554761D02*
X101914285Y-98602380D01*
X102152380Y-98602380D01*
X102247619Y-98554761D01*
X102295238Y-98459523D01*
X102295238Y-98364285D01*
X102247619Y-98269047D01*
X102152380Y-98221428D01*
X101914285Y-98221428D01*
X101819047Y-98173809D01*
X101342857Y-98602380D02*
X101342857Y-97602380D01*
X101247619Y-98221428D02*
X100961904Y-98602380D01*
X100961904Y-97935714D02*
X101342857Y-98316666D01*
X100390476Y-98602380D02*
X100485714Y-98554761D01*
X100533333Y-98507142D01*
X100580952Y-98411904D01*
X100580952Y-98126190D01*
X100533333Y-98030952D01*
X100485714Y-97983333D01*
X100390476Y-97935714D01*
X100247619Y-97935714D01*
X100152380Y-97983333D01*
X100104761Y-98030952D01*
X100057142Y-98126190D01*
X100057142Y-98411904D01*
X100104761Y-98507142D01*
X100152380Y-98554761D01*
X100247619Y-98602380D01*
X100390476Y-98602380D01*
X99200000Y-97935714D02*
X99200000Y-98602380D01*
X99628571Y-97935714D02*
X99628571Y-98459523D01*
X99580952Y-98554761D01*
X99485714Y-98602380D01*
X99342857Y-98602380D01*
X99247619Y-98554761D01*
X99200000Y-98507142D01*
X98866666Y-97935714D02*
X98485714Y-97935714D01*
X98723809Y-97602380D02*
X98723809Y-98459523D01*
X98676190Y-98554761D01*
X98580952Y-98602380D01*
X98485714Y-98602380D01*
X107557142Y-99252380D02*
X108033333Y-99252380D01*
X108080952Y-99728571D01*
X108033333Y-99680952D01*
X107938095Y-99633333D01*
X107700000Y-99633333D01*
X107604761Y-99680952D01*
X107557142Y-99728571D01*
X107509523Y-99823809D01*
X107509523Y-100061904D01*
X107557142Y-100157142D01*
X107604761Y-100204761D01*
X107700000Y-100252380D01*
X107938095Y-100252380D01*
X108033333Y-100204761D01*
X108080952Y-100157142D01*
X105890476Y-100252380D02*
X105890476Y-99252380D01*
X105890476Y-100204761D02*
X105985714Y-100252380D01*
X106176190Y-100252380D01*
X106271428Y-100204761D01*
X106319047Y-100157142D01*
X106366666Y-100061904D01*
X106366666Y-99776190D01*
X106319047Y-99680952D01*
X106271428Y-99633333D01*
X106176190Y-99585714D01*
X105985714Y-99585714D01*
X105890476Y-99633333D01*
X105271428Y-100252380D02*
X105366666Y-100204761D01*
X105414285Y-100157142D01*
X105461904Y-100061904D01*
X105461904Y-99776190D01*
X105414285Y-99680952D01*
X105366666Y-99633333D01*
X105271428Y-99585714D01*
X105128571Y-99585714D01*
X105033333Y-99633333D01*
X104985714Y-99680952D01*
X104938095Y-99776190D01*
X104938095Y-100061904D01*
X104985714Y-100157142D01*
X105033333Y-100204761D01*
X105128571Y-100252380D01*
X105271428Y-100252380D01*
X104652380Y-99585714D02*
X104271428Y-99585714D01*
X104509523Y-99252380D02*
X104509523Y-100109523D01*
X104461904Y-100204761D01*
X104366666Y-100252380D01*
X104271428Y-100252380D01*
X102747619Y-100252380D02*
X102747619Y-99252380D01*
X102747619Y-100204761D02*
X102842857Y-100252380D01*
X103033333Y-100252380D01*
X103128571Y-100204761D01*
X103176190Y-100157142D01*
X103223809Y-100061904D01*
X103223809Y-99776190D01*
X103176190Y-99680952D01*
X103128571Y-99633333D01*
X103033333Y-99585714D01*
X102842857Y-99585714D01*
X102747619Y-99633333D01*
X102271428Y-100252380D02*
X102271428Y-99585714D01*
X102271428Y-99252380D02*
X102319047Y-99300000D01*
X102271428Y-99347619D01*
X102223809Y-99300000D01*
X102271428Y-99252380D01*
X102271428Y-99347619D01*
X101842857Y-100204761D02*
X101747619Y-100252380D01*
X101557142Y-100252380D01*
X101461904Y-100204761D01*
X101414285Y-100109523D01*
X101414285Y-100061904D01*
X101461904Y-99966666D01*
X101557142Y-99919047D01*
X101700000Y-99919047D01*
X101795238Y-99871428D01*
X101842857Y-99776190D01*
X101842857Y-99728571D01*
X101795238Y-99633333D01*
X101700000Y-99585714D01*
X101557142Y-99585714D01*
X101461904Y-99633333D01*
X100985714Y-99585714D02*
X100985714Y-100585714D01*
X100985714Y-99633333D02*
X100890476Y-99585714D01*
X100700000Y-99585714D01*
X100604761Y-99633333D01*
X100557142Y-99680952D01*
X100509523Y-99776190D01*
X100509523Y-100061904D01*
X100557142Y-100157142D01*
X100604761Y-100204761D01*
X100700000Y-100252380D01*
X100890476Y-100252380D01*
X100985714Y-100204761D01*
X99938095Y-100252380D02*
X100033333Y-100204761D01*
X100080952Y-100109523D01*
X100080952Y-99252380D01*
X99128571Y-100252380D02*
X99128571Y-99728571D01*
X99176190Y-99633333D01*
X99271428Y-99585714D01*
X99461904Y-99585714D01*
X99557142Y-99633333D01*
X99128571Y-100204761D02*
X99223809Y-100252380D01*
X99461904Y-100252380D01*
X99557142Y-100204761D01*
X99604761Y-100109523D01*
X99604761Y-100014285D01*
X99557142Y-99919047D01*
X99461904Y-99871428D01*
X99223809Y-99871428D01*
X99128571Y-99823809D01*
X98747619Y-99585714D02*
X98509523Y-100252380D01*
X98271428Y-99585714D02*
X98509523Y-100252380D01*
X98604761Y-100490476D01*
X98652380Y-100538095D01*
X98747619Y-100585714D01*
X107033333Y-101902380D02*
X107128571Y-101854761D01*
X107176190Y-101759523D01*
X107176190Y-100902380D01*
X106652380Y-101807142D02*
X106604761Y-101854761D01*
X106652380Y-101902380D01*
X106700000Y-101854761D01*
X106652380Y-101807142D01*
X106652380Y-101902380D01*
X105414285Y-101902380D02*
X105414285Y-100902380D01*
X105319047Y-101521428D02*
X105033333Y-101902380D01*
X105033333Y-101235714D02*
X105414285Y-101616666D01*
X104461904Y-101902380D02*
X104557142Y-101854761D01*
X104604761Y-101807142D01*
X104652380Y-101711904D01*
X104652380Y-101426190D01*
X104604761Y-101330952D01*
X104557142Y-101283333D01*
X104461904Y-101235714D01*
X104319047Y-101235714D01*
X104223809Y-101283333D01*
X104176190Y-101330952D01*
X104128571Y-101426190D01*
X104128571Y-101711904D01*
X104176190Y-101807142D01*
X104223809Y-101854761D01*
X104319047Y-101902380D01*
X104461904Y-101902380D01*
X103700000Y-101235714D02*
X103700000Y-101902380D01*
X103700000Y-101330952D02*
X103652380Y-101283333D01*
X103557142Y-101235714D01*
X103414285Y-101235714D01*
X103319047Y-101283333D01*
X103271428Y-101378571D01*
X103271428Y-101902380D01*
X102795238Y-101235714D02*
X102795238Y-101902380D01*
X102795238Y-101330952D02*
X102747619Y-101283333D01*
X102652380Y-101235714D01*
X102509523Y-101235714D01*
X102414285Y-101283333D01*
X102366666Y-101378571D01*
X102366666Y-101902380D01*
X101509523Y-101854761D02*
X101604761Y-101902380D01*
X101795238Y-101902380D01*
X101890476Y-101854761D01*
X101938095Y-101759523D01*
X101938095Y-101378571D01*
X101890476Y-101283333D01*
X101795238Y-101235714D01*
X101604761Y-101235714D01*
X101509523Y-101283333D01*
X101461904Y-101378571D01*
X101461904Y-101473809D01*
X101938095Y-101569047D01*
X101033333Y-101902380D02*
X101033333Y-100902380D01*
X100938095Y-101521428D02*
X100652380Y-101902380D01*
X100652380Y-101235714D02*
X101033333Y-101616666D01*
X99842857Y-101854761D02*
X99938095Y-101902380D01*
X100128571Y-101902380D01*
X100223809Y-101854761D01*
X100271428Y-101759523D01*
X100271428Y-101378571D01*
X100223809Y-101283333D01*
X100128571Y-101235714D01*
X99938095Y-101235714D01*
X99842857Y-101283333D01*
X99795238Y-101378571D01*
X99795238Y-101473809D01*
X100271428Y-101569047D01*
X99366666Y-101902380D02*
X99366666Y-101235714D01*
X99366666Y-101426190D02*
X99319047Y-101330952D01*
X99271428Y-101283333D01*
X99176190Y-101235714D01*
X99080952Y-101235714D01*
M02*
